<?xml version="1.0" encoding="UTF-8"?>
<svg id="Layer_1" xmlns="http://www.w3.org/2000/svg" version="1.1" viewBox="0 0 534 451.9">
  <!-- Generator: Adobe Illustrator 29.0.1, SVG Export Plug-In . SVG Version: 2.1.0 Build 192)  -->
  <defs>
    <style>
      .st0 {
        fill: #fff;
      }
    </style>
  </defs>
  <g>
    <path class="st0" d="M265.4,187.2c0-18,10.5-35.8,55.3-42.5l11.4-1.6c-3.4-6.4-11.6-9.6-22.4-9.6s-26.3,6.6-32.9,16.2v-55.7c9.1-2.7,22.8-4.6,37.2-4.6,46.6,0,70.6,19,70.6,57.5v74.2c-10.3-5-18-8-27.2-8-16.7,0-27.4,11-50,11s-42-15.1-42-37ZM334.4,177.6v-10.5l-5,.9c-12.1,2.3-16.9,6.8-16.9,13.5s4.3,9.8,10.3,9.8,11.6-3.4,11.6-13.7Z"/>
    <path class="st0" d="M469.7,89.5c-22.6,0-33.1,9.1-48.2,9.1s-14.2-2.1-23.3-6.2v130.8c24.4,3.8,39.3,15.6,51.4,30.3v-33.9h9.6c45.4,0,74-25.8,74-66.9s-24.7-63.2-63.5-63.2ZM456.5,180.8h-6.8v-32.7c0-10.7,4.1-17.6,14.4-17.6s16.4,8.2,16.4,23.3-10,26.9-24,26.9Z"/>
    <path class="st0" d="M2.4,214.1v-52.3c5.3,9.6,14.8,15.1,26,15.1s17.6-4.6,17.6-13-2.5-9.4-11.9-20.8l-9.1-11c-10-12.1-14.2-21.7-14.2-34.2,0-28.3,22.1-45.2,60.5-45.2s31.5,2.7,42.5,7.5v52.3c-5-9.1-16-15.1-27.6-15.1s-16,4.8-16,13,2.7,10,11.9,20.8l9.1,11c10,12.1,14.2,21.7,14.2,33.6,0,28.3-23.3,45.9-60.5,45.9s-31.1-2.7-42.5-7.5Z"/>
    <path class="st0" d="M152.9,100.4c19,0,26.9-11,53.2-11s50.2,17.8,50.2,51.4v78.8h-52.5v-69.6c0-10.5-5.3-14.6-12.3-14.6s-12.3,4.1-12.3,14.6v69.6h-52.5v-127.2c10.3,5.9,18,8,26.3,8Z"/>
  </g>
  <g>
    <g>
      <path class="st0" d="M331.2,256.6c19,0,26.9-11,53.2-11s50.2,17.8,50.2,51.4v97.7h-52.5v-88.5c0-10.5-5.3-14.6-12.3-14.6s-12.3,4.1-12.3,14.6v88.5h-52.5v-146.1c10.3,5.9,18,8,26.3,8Z"/>
      <path class="st0" d="M73.7,234.8h75.8v55.3c-7.3-8.2-17.6-11.9-43.4-11.9h-9.8v26.3h53.2v43.4h-53.2v46.8h-53.7v-125.6c0-24.2,7.3-34.2,31-34.2Z"/>
      <path class="st0" d="M161.2,332.1v-29.3h53.1c0,45-.1,8.3-.1,27.5s5,24.2,13.9,24.2,11.9-4.3,11.9-12.1v-39.6h52.5v40.9c0,33.8-25.8,55.5-66.2,55.5s-65.1-23.1-65.1-67.1Z"/>
    </g>
    <circle class="st0" cx="200" cy="267.7" r="20.9"/>
    <path class="st0" d="M267.2,289.7c-1.4,0-2.8-.4-4-1.1l-19.9-12.3c-3.2-2-5.1-5.2-5.1-8.6,0-3.4,1.9-6.6,5.1-8.6l19.9-12.3c3.4-2.1,7.9-1.2,10.1,2,2.2,3.2,1.3,7.5-2.1,9.6l-15,9.3,15,9.2c3.4,2.1,4.3,6.4,2.1,9.6-1.4,2-3.7,3.2-6.1,3.2Z"/>
  </g>
</svg>